<?xml version="1.0" encoding="utf-8"?>
<!-- Generator: Adobe Illustrator 25.0.0, SVG Export Plug-In . SVG Version: 6.00 Build 0)  -->
<svg version="1.1" id="Layer_1" xmlns="http://www.w3.org/2000/svg" xmlns:xlink="http://www.w3.org/1999/xlink" x="0px" y="0px"
	 viewBox="0 0 168.78 41.18" style="enable-background:new 0 0 168.78 41.18;" xml:space="preserve">
<path d="M8.41,38.28c-0.58-3.28-2.49-12.21-6.75-17.69C5.92,15.11,7.83,6.18,8.41,2.9c1.2,0.94,2.82,1.54,4.51,1.92
	C10.85,5.45,8.9,6.72,7.96,9.19l-0.3,0.79l1.36-0.49c-1.86,1.94-4.89,5.92-4.76,11.16c-0.13,5.22,2.9,9.2,4.76,11.14l-1.36-0.49
	l0.3,0.79c0.92,2.41,2.79,3.67,4.8,4.31C11.12,36.78,9.57,37.37,8.41,38.28 M168.64,35.75l-147.43,0c0,0-0.7-0.05-1.8-0.05
	c-1.33,0-3.06,0.08-4.82,0.34c-2.12-0.34-4.33-1.26-5.52-3.42l3.71,1.33l-1.87-1.47c-0.06-0.05-6.03-4.84-5.86-11.81h0
	c0-0.01,0-0.02,0-0.02c0-0.01,0-0.03,0-0.04h0V20.6l0,0h0c-0.16-6.96,5.8-11.76,5.86-11.8l1.86-1.47l-3.7,1.33
	c1.26-2.27,3.63-3.16,5.85-3.46c1.65,0.23,3.25,0.3,4.49,0.3c1.06,0,1.76-0.05,1.76-0.05h135.16c-0.34-0.51-0.64-0.94-0.89-1.29
	l-134.32,0c-0.01,0-0.68,0.05-1.71,0.05c-2.56,0-8.74-0.29-10.93-3.02L7.54,0L7.33,1.48c-0.02,0.12-1.8,12.4-6.99,18.7L0,20.59
	L0.34,21c5.19,6.3,6.98,18.58,6.99,18.7l0.21,1.48l0.93-1.17c2.18-2.73,8.37-3.02,10.93-3.02c1.04,0,1.7,0.05,1.76,0.05h147.62
	C168.74,36.61,168.69,36.18,168.64,35.75"/>
</svg>
