<?xml version="1.0" encoding="utf-8"?>
<!-- Generator: Adobe Illustrator 25.0.0, SVG Export Plug-In . SVG Version: 6.00 Build 0)  -->
<svg version="1.1" id="Layer_1" xmlns="http://www.w3.org/2000/svg" xmlns:xlink="http://www.w3.org/1999/xlink" x="0px" y="0px"
	 viewBox="0 0 402.89 78.57" style="enable-background:new 0 0 402.89 78.57;" xml:space="preserve">
<path d="M11.88,31.41c4.6-8.87,7.19-19.51,8.38-25.42c-0.87-0.36-1.69-0.76-2.47-1.22c-0.01,4.11-0.59,7.81-1.17,10.49
	c-0.58,2.68-1.15,4.32-1.15,4.32c-1.36,4.49-3.2,7.77-3.6,8.44V31.41z M11.88,50.54c0.39,0.68,2.23,3.95,3.6,8.44
	c0,0,2.29,6.58,2.32,14.82c0.77-0.45,1.6-0.86,2.47-1.22c-1.19-5.91-3.78-16.55-8.38-25.42V50.54z M11.37,26.81
	c1.56-2.87,6.5-13.11,3.89-22.82c-1.05,5.94-4.4,21.84-11.72,32.74c-1.39,2.55-0.43,4.42-0.1,4.95c0.02,0.03,0.05,0.07,0.07,0.11
	c0.01,0.01,0.01,0.01,0.02,0.03c7.32,10.89,10.67,26.8,11.73,32.74c2.61-9.7-2.33-19.95-3.89-22.82L10.85,53v-2.17v-5.57
	c-1.15-2-2.41-3.89-3.78-5.56l-0.34-0.41l0.34-0.41c1.37-1.67,2.63-3.55,3.78-5.56v-5.57v-2.17L11.37,26.81z M8.39,39.28
	C16.08,48.9,19.95,64.32,21.5,72.1c7.69-2.7,17.75-2.24,19.45-2.15c1.23-0.05,2.39-0.08,3.42-0.08c2.12,0,3.47,0.09,3.52,0.1H355
	c0.06-0.01,1.41-0.1,3.53-0.1c1.02,0,2.19,0.03,3.42,0.08c1.69-0.09,11.76-0.55,19.45,2.15c1.55-7.78,5.42-23.2,13.1-32.82
	c-7.68-9.62-11.55-25.04-13.1-32.82c-7.69,2.7-17.75,2.24-19.45,2.14c-1.23,0.06-2.4,0.08-3.42,0.08c-1.96,0-2.99-0.01-3.53-0.09
	H47.89c-0.54,0.08-1.57,0.09-3.52,0.09c-1.03,0-2.19-0.02-3.42-0.08c-1.69,0.1-11.76,0.56-19.45-2.14
	C19.95,14.25,16.08,29.66,8.39,39.28 M0.34,38.87C10.76,26.24,14.31,1.74,14.35,1.49L14.56,0l0.93,1.17
	c1.21,1.51,2.98,2.66,5.03,3.52c0.36-1.96,0.54-3.15,0.55-3.2L21.27,0l0.94,1.17c3.69,4.62,12.77,5.86,18.76,6.15
	c0.05,0,0.1-0.01,0.1-0.01l0.01,0.02c1.25,0.05,2.38,0.07,3.28,0.07c2.08,0,3.43-0.09,3.44-0.09h307.29c0.01,0,1.36,0.09,3.44,0.09
	c0.89,0,2.01-0.02,3.28-0.07V7.3c0.01,0,0.05,0.01,0.11,0.01c5.99-0.29,15.07-1.53,18.76-6.15L381.63,0l0.21,1.49
	c0,0.05,0.17,1.24,0.55,3.2c2.05-0.87,3.82-2.02,5.02-3.52L388.34,0l0.21,1.49c0.04,0.25,3.59,24.76,14,37.38l0.34,0.41l-0.34,0.41
	c-10.41,12.63-13.96,37.14-14,37.38l-0.21,1.49l-0.94-1.17c-1.2-1.51-2.97-2.66-5.02-3.52c-0.37,1.96-0.55,3.15-0.55,3.2l-0.21,1.49
	l-0.94-1.17c-3.7-4.62-12.77-5.86-18.76-6.15h-0.11v-0.01c-1.26-0.05-2.39-0.08-3.28-0.08c-2.08,0-3.43,0.09-3.49,0.1H47.85
	c-0.05-0.01-1.4-0.1-3.48-0.1c-0.9,0-2.03,0.03-3.28,0.08l-0.01,0.01h-0.1c-5.99,0.29-15.08,1.53-18.76,6.15l-0.94,1.17l-0.21-1.49
	c-0.01-0.05-0.19-1.24-0.55-3.2c-2.06,0.87-3.82,2.01-5.03,3.52l-0.93,1.17l-0.21-1.49c-0.04-0.25-3.6-24.76-14.01-37.38L0,39.28
	L0.34,38.87z M29.68,6.93C26.74,6.08,24.05,4.83,22.14,3c-0.09,0.57-0.23,1.31-0.39,2.18C24.23,6.07,27.02,6.6,29.68,6.93
	 M21.75,73.39c0.17,0.87,0.3,1.61,0.39,2.18c1.91-1.83,4.61-3.08,7.55-3.94C27.02,71.97,24.23,72.5,21.75,73.39 M381.14,73.39
	c-2.48-0.89-5.26-1.43-7.94-1.76c2.95,0.86,5.64,2.11,7.55,3.94C380.85,75,380.99,74.26,381.14,73.39 M382.64,72.58
	c0.87,0.36,1.7,0.77,2.46,1.22c0.03-8.2,2.3-14.77,2.31-14.81c1.38-4.5,3.21-7.77,3.61-8.45v-3.38
	C386.42,56.02,383.83,66.67,382.64,72.58 M385.1,4.77c-0.76,0.45-1.59,0.86-2.46,1.22c1.19,5.91,3.78,16.55,8.38,25.42v-3.39
	c-0.39-0.67-2.23-3.95-3.61-8.44C387.4,19.53,385.13,12.97,385.1,4.77 M381.14,5.18c-0.15-0.87-0.29-1.61-0.38-2.18
	c-1.91,1.83-4.61,3.08-7.55,3.94C375.88,6.6,378.66,6.07,381.14,5.18 M387.65,74.57c0.53-2.98,1.63-8.43,3.51-14.52
	c1.88-6.09,4.55-12.78,8.2-18.23c0,0,0.01-0.01,0.02-0.03c0.03-0.04,0.06-0.08,0.08-0.11c0.33-0.53,1.27-2.4-0.1-4.95
	c-7.32-10.9-10.66-26.8-11.72-32.74c-2.61,9.71,2.32,19.95,3.88,22.82l0.53-1.24v2.17v5.57c1.15,2.01,2.41,3.89,3.78,5.56l0.34,0.41
	l-0.34,0.41c-1.37,1.67-2.64,3.56-3.78,5.56v5.57V53l-0.53-1.25C389.98,54.62,385.04,64.87,387.65,74.57"/>
</svg>
