<?xml version="1.0" encoding="utf-8"?>
<!-- Generator: Adobe Illustrator 25.0.0, SVG Export Plug-In . SVG Version: 6.00 Build 0)  -->
<svg version="1.1" id="Layer_1" xmlns="http://www.w3.org/2000/svg" xmlns:xlink="http://www.w3.org/1999/xlink" x="0px" y="0px"
	 viewBox="0 0 53.25 62.43" style="enable-background:new 0 0 53.25 62.43;" xml:space="preserve">
<path d="M1.53,52.22L1.53,52.22c0.05,0,0.12,0.01,0.18,0.01c0.05-0.73,0.11-1.56,0.16-2.47c-0.75-1.17-1.33-2.48-1.45-3.87
	c-0.15-1.72,0.43-3.32,1.7-4.75c0-0.25,0-0.51-0.01-0.77c0,0-0.91-16.93-1.74-19.63l-0.11-0.35l0.31-0.19
	c0.01-0.01,0.74-0.47,1.44-1.23c0,0,0.75-0.67,1.02-1.47c0.31-0.66,0.46-1.4,0.27-2.21c-0.03-0.07-0.38-0.89-0.73-1.95l-0.17,1.88
	c0.18,0.52,0.33,1.07,0.47,1.64c-0.2,0.4-0.57,1.04-1.03,1.33c-0.19-0.95-0.42-1.86-0.7-2.68L1.1,15.38l0.81-9.05
	c-0.01,1.35,0.91,4.29,0.91,4.29C3.13,12.47,4.16,14.91,4.2,15c0.36,1.54-0.17,2.86-0.89,3.87c1.08,6.09,0.03,27.82-0.11,30.35
	C2.7,48.58,2.24,47.55,2,46.93c0.05-1.32,0.09-2.74,0.1-4.21c-0.59,0.97-0.85,2-0.75,3.09c0.11,1.26,0.66,2.47,1.38,3.56
	c0.04,0.05,0.07,0.1,0.1,0.15c0.1,0.14,0.2,0.28,0.3,0.42c0.02,0.03,0.03,0.05,0.03,0.05v0c1.58,2.12,3.62,3.61,3.78,3.72
	c0.78,0.41,1.55,0.89,2.29,1.39h0.01l0.17,0.12c0.52,0.35,1.02,0.72,1.51,1.09l0.12,0.08h-0.01c0.93,0.71,1.78,1.42,2.49,2.04
	c0.91,0.01,1.81,0.07,2.6,0.15c-0.82-0.66-1.53-1.39-2.1-2.19h-1.64h-0.61l-1.63-1.29h1.52c-0.34-1.02-0.52-1.93-0.58-2.74
	c-0.54,0.74-1.7,1.85-3.42,1.18c0.39,0.11,2,0.35,3.45-2.69l0,0.02c0.29-2.41,1.66-3.5,1.66-3.5c-1.42,2.79-1.09,5.27-0.63,6.76
	c0.01,0.01,0.3,0.41,0.88,0.42c-0.35-0.89-0.55-1.82-0.55-2.78c0-5.62,6.35-10.19,14.16-10.19c7.81,0,14.16,4.57,14.16,10.19
	c0,0.97-0.2,1.9-0.55,2.78c0.58-0.01,0.87-0.41,0.88-0.42c0.46-1.5,0.79-3.97-0.63-6.76c0,0,1.37,1.09,1.66,3.5l0-0.02
	c1.45,3.03,3.06,2.8,3.45,2.69c-1.73,0.66-2.88-0.45-3.43-1.18c-0.06,0.81-0.23,1.72-0.58,2.74h1.52l-1.63,1.29h-0.62h-1.62
	c-0.57,0.79-1.27,1.53-2.1,2.19c0.79-0.07,1.69-0.14,2.6-0.15c0.7-0.62,1.55-1.33,2.49-2.04h-0.01l0.12-0.08
	c0.49-0.37,0.99-0.73,1.51-1.09l0.17-0.12h0.01c0.74-0.5,1.51-0.98,2.29-1.39c0.15-0.11,2.2-1.61,3.78-3.72v0
	c0,0,0.01-0.02,0.04-0.05c0.1-0.14,0.2-0.28,0.3-0.42c0.03-0.05,0.07-0.1,0.1-0.15c0.72-1.09,1.27-2.3,1.38-3.56
	c0.1-1.09-0.16-2.12-0.75-3.09c0.02,1.47,0.05,2.9,0.1,4.21c-0.25,0.61-0.7,1.65-1.21,2.28c-0.14-2.53-1.19-24.25-0.11-30.35
	c-0.72-1.01-1.25-2.33-0.89-3.87c0.03-0.09,1.07-2.53,1.38-4.38c0,0,0.92-2.94,0.91-4.29l0.81,9.05l-0.05,0.13
	c-0.28,0.82-0.51,1.73-0.7,2.68c-0.46-0.29-0.83-0.93-1.03-1.33c0.14-0.57,0.29-1.12,0.47-1.64l-0.17-1.88
	c-0.35,1.06-0.7,1.88-0.73,1.95c-0.19,0.81-0.03,1.55,0.27,2.21c0.28,0.8,1.02,1.47,1.02,1.47c0.71,0.76,1.43,1.22,1.45,1.23
	l0.31,0.19l-0.11,0.35c-0.83,2.71-1.74,19.63-1.74,19.63c0,0.26,0,0.52,0,0.77c1.27,1.43,1.85,3.03,1.7,4.75
	c-0.12,1.39-0.7,2.7-1.45,3.87c0.05,0.91,0.1,1.74,0.15,2.47c0.06,0,0.13-0.01,0.18-0.01l0,0c0.98-0.08,1.83,0.46,1.42,1.15
	c-0.42,0.69-1.13,0.76-1.13,0.76s0.27-0.17,0.49-0.56c0.11-0.2,0.02-0.29-0.09-0.33c-0.08-0.01-0.16-0.03-0.25-0.04h0
	c-0.18-0.02-0.37-0.02-0.55-0.02c0.12,1.52,0.21,2.44,0.22,2.49l0.08,0.71h-6.88h-1.21c-0.96,0.69-1.87,1.41-2.65,2.07
	c2.84-0.03,4.63,1.39,4.63,1.39l-1.81,0.72l0,0c-0.87,0.37-2.26,0.9-3.51,1.15c0.01,0,0.02,0.01,0.02,0.01
	c-0.08,0.01-0.14,0.02-0.22,0.04c-0.06,0.01-0.11,0.02-0.16,0.03c-6.35,1.1-7.01,0.49-7.01,0.49c2.73,0,4.45-1.78,4.45-1.78
	l0.16-0.16c0.07-0.06,0.41-0.41,0.95-0.92c-0.4,0.02-0.8,0.05-1.18,0.08h-0.01c-0.1,0.01-0.19,0.02-0.29,0.03
	c-0.19,0.02-0.47,0.07-0.78,0.15c-0.18,0.04-0.38,0.1-0.57,0.18c-0.03,0.01-0.06,0.02-0.09,0.04c-0.21,0.08-0.42,0.17-0.63,0.29
	c-0.03,0.01-0.05,0.03-0.07,0.05c-0.17,0.1-0.34,0.22-0.5,0.35c-0.05,0.04-0.1,0.08-0.15,0.13c-0.18,0.17-0.35,0.35-0.49,0.56
	l-5.19,0.59l0.04-0.02c-0.69,0.08-1.4,0.13-2.13,0.13c-0.72,0-1.43-0.05-2.12-0.13l0.04,0.02l-5.19-0.59
	c-0.15-0.22-0.32-0.4-0.5-0.57c-0.05-0.04-0.1-0.09-0.15-0.13c-0.17-0.14-0.34-0.26-0.52-0.37c-0.02-0.01-0.04-0.02-0.06-0.04
	c-0.21-0.12-0.42-0.21-0.63-0.29c-0.04-0.02-0.08-0.03-0.12-0.04c-0.2-0.07-0.39-0.13-0.57-0.17c-0.3-0.07-0.56-0.12-0.75-0.14
	c-0.1-0.01-0.19-0.02-0.29-0.03h-0.01c-0.38-0.03-0.78-0.06-1.18-0.08c0.55,0.51,0.89,0.86,0.95,0.92l0.16,0.16
	c0,0,1.72,1.78,4.45,1.78c0,0-0.66,0.6-7.01-0.49c-0.05-0.01-0.11-0.02-0.16-0.03c-0.08-0.01-0.14-0.02-0.22-0.04
	c0,0,0.01,0,0.02-0.01c-1.26-0.25-2.64-0.78-3.51-1.15l0,0l-1.81-0.72c0,0,1.78-1.42,4.63-1.39c-0.78-0.66-1.69-1.38-2.65-2.07H8.21
	H1.34l0.08-0.71c0.01-0.05,0.1-0.97,0.22-2.49c-0.18,0-0.37,0-0.55,0.02h0C1,53.2,0.92,53.22,0.83,53.23
	c-0.11,0.04-0.2,0.14-0.09,0.33c0.22,0.39,0.49,0.56,0.49,0.56s-0.71-0.07-1.12-0.76C-0.31,52.68,0.55,52.14,1.53,52.22"/>
<path d="M2.97,8.95C2.33,7.4,2.03,4.11,2.03,4.11l0.02-0.28l0.41-0.13c0.97-0.3,3.73-1.51,3.73-3.06V0h40.88v0.64
	c0,1.56,2.76,2.76,3.72,3.06l0.41,0.13l0.02,0.28c0,0-0.3,3.29-0.94,4.84L49.99,4.8c-1.07-0.39-3.66-1.53-4.14-3.51H7.4
	C6.92,3.27,4.33,4.41,3.26,4.8L2.97,8.95z"/>
</svg>
